<mxfile host="app.diagrams.net" agent="Mozilla/5.0 (X11; Ubuntu; Linux x86_64; rv:130.0) Gecko/20100101 Firefox/130.0" version="24.7.13">
  <diagram name="Page-1" id="oFzx5GKKmwyWG8xhSMEZ">
    <mxGraphModel dx="1434" dy="736" grid="1" gridSize="10" guides="1" tooltips="1" connect="1" arrows="1" fold="1" page="1" pageScale="1" pageWidth="850" pageHeight="1100" math="0" shadow="0">
      <root>
        <mxCell id="0" />
        <mxCell id="1" parent="0" />
        <mxCell id="6DLf0M4u58F8rXp5rgFk-14" style="edgeStyle=orthogonalEdgeStyle;rounded=0;orthogonalLoop=1;jettySize=auto;html=1;exitX=1;exitY=0.5;exitDx=0;exitDy=0;entryX=0;entryY=0.5;entryDx=0;entryDy=0;" edge="1" parent="1" source="6DLf0M4u58F8rXp5rgFk-1" target="6DLf0M4u58F8rXp5rgFk-9">
          <mxGeometry relative="1" as="geometry" />
        </mxCell>
        <mxCell id="6DLf0M4u58F8rXp5rgFk-1" value="Timesheet management system" style="rounded=0;whiteSpace=wrap;html=1;" vertex="1" parent="1">
          <mxGeometry x="400" y="310" width="120" height="60" as="geometry" />
        </mxCell>
        <mxCell id="6DLf0M4u58F8rXp5rgFk-12" style="edgeStyle=orthogonalEdgeStyle;rounded=0;orthogonalLoop=1;jettySize=auto;html=1;exitX=1;exitY=0.5;exitDx=0;exitDy=0;entryX=0.25;entryY=0;entryDx=0;entryDy=0;" edge="1" parent="1" source="6DLf0M4u58F8rXp5rgFk-2" target="6DLf0M4u58F8rXp5rgFk-1">
          <mxGeometry relative="1" as="geometry" />
        </mxCell>
        <mxCell id="6DLf0M4u58F8rXp5rgFk-2" value="Employees&lt;span style=&quot;white-space: pre;&quot;&gt;&#x9;&lt;/span&gt;" style="ellipse;whiteSpace=wrap;html=1;aspect=fixed;" vertex="1" parent="1">
          <mxGeometry x="310" y="130" width="80" height="80" as="geometry" />
        </mxCell>
        <mxCell id="6DLf0M4u58F8rXp5rgFk-13" style="edgeStyle=orthogonalEdgeStyle;rounded=0;orthogonalLoop=1;jettySize=auto;html=1;exitX=0;exitY=0.5;exitDx=0;exitDy=0;entryX=0.75;entryY=0;entryDx=0;entryDy=0;" edge="1" parent="1" source="6DLf0M4u58F8rXp5rgFk-3" target="6DLf0M4u58F8rXp5rgFk-1">
          <mxGeometry relative="1" as="geometry" />
        </mxCell>
        <mxCell id="6DLf0M4u58F8rXp5rgFk-3" value="Managers" style="ellipse;whiteSpace=wrap;html=1;aspect=fixed;" vertex="1" parent="1">
          <mxGeometry x="530" y="130" width="80" height="80" as="geometry" />
        </mxCell>
        <mxCell id="6DLf0M4u58F8rXp5rgFk-11" style="edgeStyle=orthogonalEdgeStyle;rounded=0;orthogonalLoop=1;jettySize=auto;html=1;entryX=0.25;entryY=1;entryDx=0;entryDy=0;" edge="1" parent="1" source="6DLf0M4u58F8rXp5rgFk-4" target="6DLf0M4u58F8rXp5rgFk-1">
          <mxGeometry relative="1" as="geometry" />
        </mxCell>
        <mxCell id="6DLf0M4u58F8rXp5rgFk-4" value="Payroll system" style="ellipse;whiteSpace=wrap;html=1;aspect=fixed;" vertex="1" parent="1">
          <mxGeometry x="290" y="470" width="80" height="80" as="geometry" />
        </mxCell>
        <mxCell id="6DLf0M4u58F8rXp5rgFk-5" value="Project management tools" style="ellipse;whiteSpace=wrap;html=1;aspect=fixed;" vertex="1" parent="1">
          <mxGeometry x="550" y="480" width="80" height="80" as="geometry" />
        </mxCell>
        <mxCell id="6DLf0M4u58F8rXp5rgFk-9" value="HR tools" style="ellipse;whiteSpace=wrap;html=1;aspect=fixed;" vertex="1" parent="1">
          <mxGeometry x="670" y="310" width="80" height="80" as="geometry" />
        </mxCell>
        <mxCell id="6DLf0M4u58F8rXp5rgFk-10" style="edgeStyle=orthogonalEdgeStyle;rounded=0;orthogonalLoop=1;jettySize=auto;html=1;entryX=0.592;entryY=1.05;entryDx=0;entryDy=0;entryPerimeter=0;" edge="1" parent="1" source="6DLf0M4u58F8rXp5rgFk-5" target="6DLf0M4u58F8rXp5rgFk-1">
          <mxGeometry relative="1" as="geometry" />
        </mxCell>
      </root>
    </mxGraphModel>
  </diagram>
</mxfile>
